<?xml version="1.0" encoding="utf-8"?>
<!-- Generator: Adobe Illustrator 19.0.1, SVG Export Plug-In . SVG Version: 6.00 Build 0)  -->
<svg version="1.1" id="Слой_1" xmlns="http://www.w3.org/2000/svg" xmlns:xlink="http://www.w3.org/1999/xlink" x="0px" y="0px"
	 viewBox="0 0 410.2 441.9" style="enable-background:new 0 0 410.2 441.9;" xml:space="preserve">
<g>
	<path d="M48.5,84.7c2,6.3,5.4,11.9,9.1,16.4c7.6,8.9,16,14.4,23.1,18.4c0.3,0.2,0.7,0.3,1,0.5c2.9-12.4,7.5-24.2,13.7-35
		C95,85.1,94.8,85,94.5,85c-5.4-1-11.4-2.8-16.2-5.6c-2.4-1.4-4.4-3-6-4.9c-0.7-0.9-1.5-2.3-1.9-3c-0.1-0.2-0.3-0.3-0.4-0.7
		l-0.3-1.7l-0.2-0.8l0-0.2l0-0.1c0-0.5,0,0.4,0,0.5l0-0.1l-0.1-0.3l-0.2-1.3c-0.5-3.4-0.5-6.5,0.3-9.7c0.7-3.1,2.6-6.4,4.9-10.1
		c2.3-3.6,5-7.9,6.3-12.6c1.4-4.7,1.3-9.2,0.6-12.9c-1.4-7.5-4.1-12.6-5.9-16.2C73.4,1.9,72.2,0,72.2,0s0.6,2.2,1.3,6.2
		c0.7,3.8,1.7,9.6,0.9,15.8c-0.4,3.1-1.3,6.1-3.1,8.6c-1.7,2.6-4.2,4.8-7.5,7.5c-3.2,2.7-7.2,6.2-10.3,11.2
		c-3.2,4.9-5.3,10.8-6.2,16.5L47,67.9L47,68.5l0,0.1l0,0.6l0,0.1l0,0.2l-0.1,0.9l-0.2,1.7c0,0.8,0,1.8,0.1,2.7
		C46.9,78.6,47.5,81.4,48.5,84.7z"/>
	<path d="M332.1,119.6c7.1-4.1,15.5-9.5,23.1-18.4c3.7-4.5,7.1-10.1,9.1-16.4c0.9-3.3,1.5-6.2,1.7-10c0-0.9,0.1-1.9,0.1-2.7
		l-0.2-1.7l-0.1-0.9l0-0.2l0-0.1l0-0.6l0-0.1l-0.1-0.5l-0.3-2.1c-0.9-5.6-3-11.6-6.2-16.5c-3.2-5-7.2-8.4-10.3-11.2
		c-3.3-2.8-5.8-5-7.5-7.5c-1.7-2.5-2.7-5.6-3.1-8.6c-0.8-6.2,0.2-12,0.9-15.8c0.7-3.9,1.3-6.2,1.3-6.2s-1.2,1.9-3.1,5.5
		c-1.8,3.6-4.6,8.8-5.9,16.2c-0.7,3.7-0.8,8.2,0.6,12.9c1.3,4.6,4,9,6.3,12.6c2.3,3.7,4.2,6.9,4.9,10.1c0.8,3.1,0.8,6.2,0.3,9.7
		l-0.2,1.3l0,0.3l0,0.1c0,0.1,0-1,0-0.5l0,0.1l0,0.2l-0.2,0.8l-0.3,1.7c-0.1,0.3-0.3,0.4-0.4,0.7c-0.4,0.7-1.2,2.1-1.9,3
		c-1.6,1.9-3.6,3.5-6,4.9c-4.8,2.8-10.9,4.6-16.3,5.6c-0.3,0.1-0.5,0.1-0.8,0.1c6.2,10.8,10.8,22.5,13.7,35
		C331.5,119.9,331.8,119.7,332.1,119.6z"/>
	<path d="M408.8,386.1c-9.8-31.4-23.1-61.7-39.8-90.1c-17-29-41.4-52.7-70.5-68.9c15.6-22.9,25-50.6,25-78
		c0-65-52.4-117.7-117.1-117.7C141.8,31.4,89.3,84.1,89.3,149c0,27.4,9.3,55.1,24.9,78c-29.8,16.6-54.6,41-71.6,70.9
		c-14.9,26.4-28.5,55.3-40.6,86.2c-3.3,8.7-2.7,18.4,1.9,26.5c4.5,8.1,12.2,13.6,21.2,15.2c60.7,10.6,121.6,16,181.2,16
		c59.9,0,120.1-5.4,178.9-16.2c8.5-1.6,16-6.8,20.5-14.3C410.3,403.7,411.4,394.6,408.8,386.1z M288.9,116.9
		c1.3,3.7,2.1,7.6,2.1,11.7c0,20-16.1,36.2-36,36.2c-18.4,0-33.5-14-35.6-32L288.9,116.9z M123.9,116.9l69.4,15.9
		c-2.1,18-17.1,32-35.6,32c-19.9,0-36-16.2-36-36.2C121.8,124.5,122.7,120.6,123.9,116.9z M271.8,210.4l-18,2l-14,17l-20-3l-15,6
		l-15-6l-20,3l-14-17l-18-2l-25-45.8l24,30.3h19l14,13.8l12-4.1l23,8.9l23-9l12,4.2l14-13.8h19l24-30.3L271.8,210.4z"/>
</g>
</svg>
