<svg xmlns="http://www.w3.org/2000/svg" viewBox="-429 218 100 125" style="enable-background:new -429 218 100 125"><path d="M-364 233.4V226c0-3.9-3.1-7-7-7h-16c-3.9 0-7 3.1-7 7v7.4c-21 1.4-21 5.6-21 5.6v10h72v-10s0-4.2-21-5.6zm-22-6.4h14v6.1c-2.2-.1-4.5-.1-7-.1s-4.8 0-7 .1V227zM-410 255l6 62h50l6-62h-62zm16.2 52h-.2c-1.6 0-2.9-1.2-3-2.8l-2-36c-.1-1.7 1.2-3.1 2.8-3.2 1.7-.1 3.1 1.2 3.2 2.8l2 36c.1 1.7-1.2 3.1-2.8 3.2zm17.8-3c0 1.7-1.3 3-3 3s-3-1.3-3-3v-36c0-1.7 1.3-3 3-3s3 1.3 3 3v36zm15 .2c-.1 1.6-1.4 2.8-3 2.8h-.2c-1.7-.1-2.9-1.5-2.8-3.2l2-36c.1-1.7 1.5-2.9 3.2-2.8 1.7.1 2.9 1.5 2.8 3.2l-2 36z"/></svg>