<?xml version="1.0" encoding="utf-8"?>
<!-- Generator: Adobe Illustrator 19.0.1, SVG Export Plug-In . SVG Version: 6.00 Build 0)  -->
<svg version="1.1" id="Слой_1" xmlns="http://www.w3.org/2000/svg" xmlns:xlink="http://www.w3.org/1999/xlink" x="0px" y="0px"
	 viewBox="-436.2 146.3 499.1 267.3" style="enable-background:new -436.2 146.3 499.1 267.3;" xml:space="preserve">

<g>
	<path class="st0" d="M-273.4,249.1l0.2-2.6c0.2-1.5-1.2-2.9-2.9-2.7l-46.7,5.5c-2.2,0.3-3.9,2.2-3.9,4.6v1.5l0.3,7.2l0.2,5l8.2-1
		l-8.2,1l2.1,53.9c0,1.2,1,2.2,2.2,2.4l3.8,0.3c1.4,0.2,2.6-1,2.7-2.4l2.7-57.3c0.2-2.4,2.1-4.3,4.4-4.3h31.6c1.4,0,2.4-1,2.6-2.4
		l0.3-5.3l-4.4-1.5L-273.4,249.1z"/>
	<path class="st0" d="M-278.3,331.2v-2.9c0-1.9-1.5-3.4-3.4-3.2l-14,1c-1.9,0.2-3.6-1.5-3.4-3.4l0.5-11.8c0-1.9,1.7-3.2,3.6-3.1
		l7.2-1.2c1,0.2,2.1-0.7,2.1-1.7l-0.5-4.1c0.2-1-0.7-2.1-1.7-2.1l-8.9-0.9c-1.9-0.2-3.1-1.7-2.9-3.6l0.7-7.9
		c0.2-1.9,1.7-3.1,3.6-2.9l12.1,0.3c1.2,0.2,2.2-0.9,2.2-2.1v-1.9v-0.2v-2.6v-2.6c0-1.5-1.2-2.7-2.7-2.7l-15,1.2v4.3l-2.7-4.3h-0.9
		c-1.7,0-3.1,1.5-3.1,3.2l-1.4,56.1c0,1.7,1.2,3.2,2.9,3.4l22.4,1c1.7,0.2,3.1-1,3.4-2.4l-5.8-1.4L-278.3,331.2z"/>
	<path class="st0" d="M-257.1,243.4l18.6,0.2c0.9,0,1.5-0.7,1.5-1.5v-3.2c0-0.9-0.7-1.5-1.5-1.5h-1.4l-2.4,3.8l0.7-3.9l-15.7-0.2
		c-0.9,0-1.5,0.7-1.5,1.5v3.2C-258.5,242.8-258,243.4-257.1,243.4"/>
	<path class="st0" d="M-231.8,249.1h-9.2c-0.7,0-1.2,0.5-1.4,1l-10.9,45.1c-0.3,1.5-2.7,1.4-2.7-0.3l0.3-44.6c0-0.9-0.7-1.4-1.4-1.4
		h-7.5c-0.9,0-1.4,0.7-1.4,1.4l-4.3,89.1c0,0.9,0.7,1.5,1.7,1.4l7.2-0.2c0.5-0.2,0.9-0.5,1-0.9l6.2-16.4l-0.9-8.5l2.6,3.4l8.7-26.3
		c0.5-1.4,2.6-1.2,2.7,0.3l1.5,40.2c0,0.7,0.7,1.4,1.4,1.4h5.6c0.9,0,1.4-0.7,1.4-1.4l0.7-81.6C-230.3,249.8-231,249.1-231.8,249.1"
		/>
	<path class="st0" d="M-112.8,276.4l-6.2-1.2c-0.7-0.2-1.4,0.3-1.4,1l0.9,37.8c0,0.9-0.7,1.7-1.5,1.5l-5.1-0.2
		c-0.9,0-1.5-0.7-1.5-1.5l-2.6-53.5c0-0.7-0.7-1.4-1.4-1.5l-4.3-0.5c-0.9-0.2-1.7,0.5-1.7,1.5l-1,58c0,0.7-0.5,1.4-1.2,1.5l-6.7,1.2
		c-1,0.2-1.9-0.5-1.9-1.5l1.7-85.2c0-0.9-0.7-1.5-1.5-1.5h-0.7l-3.2,5.3l0.5-5.3l-6.2,0.2c-0.9,0-1.5,0.7-1.5,1.5l0.9,97.3
		c0,0.9,0.7,1.5,1.7,1.5l41.9-2.6l1.2-5.5l0.7,5.5l1.5-0.2c0.9,0,1.5-0.7,1.5-1.5l-1.9-51C-111.6,277.1-112.1,276.6-112.8,276.4"/>
	<path class="st0" d="M-96.2,249.4l7.7,4.6l17.1-1.2c0.9,0,1.4-0.7,1.4-1.5l0.2-4.1v-2.6c0-0.7-0.5-1.4-1.4-1.4l-62.6-3.9
		c-0.9,0-1.7,0.7-1.7,1.5v8.4c0,0.9,0.7,1.5,1.4,1.5l27.4,2.7c0.7,0,1.4,0.7,1.4,1.5l4.8,81.1c0,0.9,0.7,1.5,1.5,1.5l8.2-0.2
		c0.9,0,1.5-0.7,1.5-1.5l-2.7-79.9c0-0.2,0-0.5,0.2-0.7L-96.2,249.4z"/>
	<path class="st0" d="M-7,246.5l-5.6,0.2c-0.7,0-1.2,0.3-1.4,1l-8.9,25.7l1.9,6l-2.7-3.6l-11.1,35.7c-0.3,0.9-1.5,0.7-1.5-0.2
		l-0.5-62.6c0-0.9-0.7-1.5-1.5-1.4l-6.3,0.2c-0.9,0-1.5,0.7-1.5,1.5l-0.7,86v4.3c0,0.9,0.7,1.5,1.5,1.5l9.9-0.2c0.7,0,1.2-0.5,1.4-1
		l18-54.2c0.2-0.9,1.4-0.7,1.5,0.2l2.6,42.2c0.2,0.7,0.7,1.4,1.5,1.4h6.7c0.9,0,1.5-0.7,1.5-1.7l-3.1-79.7
		C-5.4,247-6.1,246.3-7,246.5"/>
	<path class="st0" d="M-30.7,252l8.9-0.2c0.7,0,1.2-0.5,1.4-1l0.7-2.1c0.3-1-0.5-2.1-1.5-2.1l-9.6,0.2c-0.9,0-1.5,0.7-1.5,1.5v2.1
		C-32.3,251.3-31.6,252-30.7,252"/>
	<path class="st0" d="M-308.6,233.7l-0.2,1.2c-0.3,1.7,1,3.2,2.7,3.1l8.5-0.9c1.2-0.2,2.1-1,2.2-2.2l3.8-23.9
		c0.2-1.7,1.7-2.9,3.4-2.7l5.1,0.2c1.9,0,3.2,1.5,3.2,3.4l-0.3,12.8c0,1.4,1,2.4,2.4,2.4l8.9-0.7c1.2-0.2,2.2-1.2,2.1-2.6l-1-9.9
		l-0.3-2.7l-0.9-8.6l-0.7-6.2l0,0l-4.8-44.1c-0.2-1.7-1.5-2.9-3.2-2.9h-0.9l-2.7,6.3l0.5-6.5l-10.4-0.3c-1.7,0-3.1,1.2-3.4,2.7
		l-2.1,12.3l0,0l-1.7,10.8l-0.2,1.2l-9.4,54.5l3.8-2.6L-308.6,233.7z M-288.3,172.6c0.2-1.7,1.7-3.1,3.4-3.1h0.3
		c1.7,0,3.1,1.4,3.2,3.1l0.7,15.4c0.2,1.9-1.5,3.6-3.4,3.4h-2.6c-1.9,0-3.4-1.7-3.2-3.6L-288.3,172.6z"/>
	<path class="st0" d="M-149.7,223.9l1.7-15.2c0.2-1.7,1.7-3.1,3.4-3.1h4.8c1.9,0,3.4,1.5,3.4,3.4l-0.3,19.7c0,1.4,1,2.6,2.6,2.6
		l7.2,0.2c2.1,0,3.8-1.7,3.4-3.8l-7.9-72.7l-7.4-2.6l7-0.9l-0.2-2.1c-0.2-1.7-1.5-3.1-3.4-3.1l-13.3-0.2c-1.7,0-3.1,1.2-3.4,2.9
		l-11.3,73.7c-0.2,1.5,0.9,2.7,2.4,2.7l8.9,0.2C-150.9,226.2-149.9,225.3-149.7,223.9 M-146.7,185.8l1-15.2c0.2-1.7,1.7-3.2,3.4-3.1
		h0.2c1.7,0,3.2,1.4,3.4,3.2l1,15.2c0.2,2.1-1.4,3.6-3.4,3.6h-2.2c-1,0-1.4-0.2-2.1-1l-2.6,1.7l1.5-2.9
		C-146.7,186.8-146.8,186.3-146.7,185.8"/>
	<path class="st0" d="M-221.9,229.4l-7.4-44.1l-1.9-11.6c-0.2-1.4-1.5-2.4-3.1-2.1l-14.9,2.7c-1.2,0.2-2.1,1-2.1,2.2l-5.5,42.6
		l-1,8.2c-0.2,1,0.7,2.1,1.9,2.1l6.5-0.2c0.9,0,1.7-0.7,1.7-1.7l0.9-14.9c0-1.2,1-2.2,2.2-2.4l5-0.7c1.5-0.2,2.9,1,2.9,2.6l0.3,17.6
		c0,1,0.9,1.9,1.9,2.1l10.4,0.2C-222.6,231.8-221.6,230.6-221.9,229.4 M-239.2,201.7l-3.8,0.7c-1.7,0.3-3.2-1.2-3.1-2.9l1.7-15
		c0.2-1.2,1-2.1,2.2-2.2h0.5c1.5-0.2,2.7,0.9,2.9,2.2l1.5,14.4C-237,200.2-237.8,201.5-239.2,201.7"/>
	<path class="st0" d="M-168.6,235.1l-2.6-16.6l-0.2-0.7l-0.9-6.2l-0.9-6.2l-2.9-19.3c-0.2-1.4-1.4-2.2-2.6-2.2l-24.8-0.7
		c-1.4,0-2.6,1-2.7,2.4l-0.7,5l-0.3,2.6l6.5,1.2l-6.8,1.7l-4.8,39.2l-1.2,10.3c-0.2,1,0.7,1.7,1.5,1.9l10.1,0.3
		c0.9,0,1.5-0.7,1.7-1.4l2.7-28c0.2-1.4,1.4-2.4,2.7-2.4l5.6-0.2c1.4,0,2.6,1,2.6,2.4l1.5,18c0,0.9,0.9,1.7,1.7,1.7l12.7,0.3
		c1.2,0,2.1-1,1.9-2.1V235.1l-5.1-5.5L-168.6,235.1z M-189.3,211.1l-5-0.2c-1.5,0-2.7-1.4-2.6-3.1l1.7-14.2c0.2-1.4,1.4-2.4,2.7-2.4
		h1.7c1.4,0,2.4,1,2.6,2.4l1.5,14.4C-186.3,209.8-187.5,211.1-189.3,211.1"/>
	<path class="st0" d="M-331.5,329.1c0-0.9-0.2-2.2-0.2-3.6l-0.2-2.4c0-0.9-0.2-1.9-0.2-2.6l-0.2-1.9v-0.2l-3.6-54.5
		c-0.2-2.2-1.9-3.9-4.1-3.9l-20-0.5c-2.4,0-4.3,1.9-4.3,4.1l-0.7,70.1c0,2.6,2.2,4.6,4.8,4.3l1.2-0.2l5.8-6.2l-1.5,5.8l19.7-2.9
		c2.2-0.3,3.8-2.2,3.6-4.4c0,0,0-0.2,0-0.3L-331.5,329.1z M-347.9,324.8h-3.1c-1.4,0-2.6-1.2-2.6-2.6l-2.9-47.7
		c-0.2-2.4,1.9-4.4,4.3-4.4h2.6c2.2,0,4.1,1.9,4.1,4.1l0.2,47.7C-345.2,323.6-346.4,324.8-347.9,324.8"/>
	<path class="st0" d="M-168.7,257.1v-2.1l0,0l-0.2-6.5c0-0.9-0.7-1.7-1.7-1.5h-9.4c-0.9,0-1.4,0.5-1.5,1.4l-11.6,52.2
		c-0.3,1.5-2.6,1.4-2.7-0.2l-6.7-43.4c-0.2-0.9-0.9-1.4-1.5-1.4l-9.6-0.3l0.2,6.2l-4.1-6.3l-3.4-0.2c-0.9,0-1.7,0.7-1.7,1.7v8v7.4
		l-0.7,62.6v4.4c0,0.9,0.7,1.7,1.7,1.7h5.1c0.9,0,1.7-0.7,1.7-1.5l2.1-48.7c0-1,1.5-1.4,1.9-0.3l11.3,34.9c0.2,0.7,0.9,1.2,1.5,1.2
		l9.4,0.2c0.9,0,1.5-0.5,1.7-1.4l0.7-3.4l0.9-4.6l6-32.1c0.2-1.2,2.1-1,2.1,0.2l3.8,59.2c0,0.9,0.9,1.5,1.7,1.5h4.3
		c1,0,1.7-0.9,1.7-1.7L-168.7,257.1L-168.7,257.1z"/>
	<path class="st0" d="M-53.8,313.9l-11.6,2.2c-1,0.2-1.9-0.5-1.9-1.5l-0.3-11.1c0-0.9,0.7-1.5,1.5-1.5l12.5-0.2
		c0.5,0,0.9-0.3,0.9-0.9L-53,291c0-0.5-0.5-0.9-1-0.9l-14.5,2.2c-0.9,0.2-1.7-0.5-1.9-1.5l-0.5-17.4c0-0.9,0.7-1.5,1.5-1.5l13.9-0.2
		c0.9,0,1.5-0.7,1.5-1.5l-0.2-9.7c0-1-0.9-1.7-1.9-1.5l-22.6,4.1c-0.7,0.2-1.4,0.9-1.2,1.5l1.4,60.2c0,0.9,0.7,1.5,1.5,1.5l16.6,0.3
		l3.4-5.6l-1.2,5.6h4.3c0.9,0,1.5-0.7,1.5-1.5l-0.3-9.7C-52.5,314.2-53.1,313.7-53.8,313.9"/>
	<path class="st0" d="M-111.6,228.1l6.8,0.3c1.5,0,2.9-1.2,2.9-2.7l0.9-17.4c0-1.5,1.4-2.7,2.9-2.7h2.4c1.4,0,2.6,1,2.7,2.4
		l3.8,23.9c0.2,1.2,1.2,2.1,2.2,2.2l8.2,0.7c0.5,0,0.9,0,1.4-0.2l-3.8-4.3l5,2.9c0.2-0.3,0.2-0.9,0.2-1.4l-5.3-26.3l-1.2-6.5
		l-0.2-0.5l-1-5.1l-3.6-18c-0.3-1.4-1.5-2.4-3.1-2.2l-14.7,1.4c-1.4,0.2-2.4,1-2.6,2.4l-6,44.1l-0.3,2.6l-0.2,1.2
		C-114.5,226.5-113.3,228.1-111.6,228.1 M-100.3,183.8c0-1.5,1.4-2.7,2.9-2.7c1.4,0,2.4,1,2.7,2.4l2.2,13.9c0.3,1.7-1,3.2-2.9,3.2
		h-2.6c-1.5,0-2.7-1.4-2.7-2.9L-100.3,183.8z"/>
	<path class="st0" d="M-341.4,347.2c1.9,1.5,2.4,4.4,3.8,6.3c-0.5,1,6.8,1.2,6.7,2.2c0,0.9,1.5,4.3,1.7,5.1
		c6.7,0.3,4.3,7.5,10.9,7.5c0.7-0.9,4.3-0.9,5.1-1.5c1.4-0.7,3.2-0.9,4.4-1.7c1-1.2,0.9-4.3,0.9-4.3s4.1,3.1,9.6,3.9
		c1.7,0.2,0-1.9,1.2-2.7c2.7,1.4,14.9,2.2,18,2.6c1.4,0,18.3-0.2,20.5-0.2c8.4,0.2,32.3,0.9,74.7,1.2c27.7-0.7,73.9-0.7,92-1.7
		c1.9-0.2,7.7-0.2,9.4-0.9c1.4-0.5,5.6-1.5,6.5-2.2c-0.5,0.7-1.5,2.1-0.3,2.1c3.2,0,9.7-4.1,9.7-4.1s2.6,2.4,4.3,2.1
		c5.3-1.4,14.2-4.6,14.2-4.6s-0.2,3.4,1,4.6c1.4,0.9,2.9,0.9,4.3,1.4c1,0.5,1.5,1.7,2.6,2.2c1.5,0.2,3.2-0.2,4.8-0.2
		c5-0.3,16.6-8.9,21.5-9.4c0.7-1.9,0-3.9-1-5.5c1.4-1.9,6.8-3.1,6.8-3.1s-3.8,3.6-3.4,6.5c0,1.5,1.5,2.4,2.6,3.2
		c-0.9,1.9-3.2,2.2-4.1,4.1c0,2.1,0.9,4.1,2.4,5.1c2.7,2.1,4.8,13.9,8.4,13.5c1.7,0,3.2-0.7,4.8-1c-0.2-1.4-0.9-2.6-1.5-3.6
		c1.7,1.2,3.6,2.2,5.1,3.6c2.1,1.9-3.9,5.5-1.2,6.7c2.4,0.7,1.9,1.2,4.1-0.2c3.8-2.2,7.5-4.4,10.9-7.2c1.2-0.9,2.4-2.1,3.9-1.9
		c2.6,0.2,3.4,0.9,6,1.2c2.7,0.3,5.5,1.9,8.4,1.4c1.5-0.2,1.7,4.3,1.7,4.3l-5-0.7c0,0-1.4-2.9-2.9-3.2c-2.2-0.2-2.7,0-5,0
		c-1.4,0-2.9-0.2-4.1,0.7c-2.9,1.9-5.8,3.6-8.5,5.6s-7.2,7.2-7.2,7.2s-3.4-4.4-7.4-4.8c-2.4-0.3-5.5,3.1-5.5,3.1s-3.6-0.7-5,0.5
		c-2.2,1.9-3.8,4.6-5.5,7c-4.1-1.5-8.4,3.2-12.5,5.5c-1.5,0.7-3.1,0.5-3.1,3.4c0,0-4.4-5.8-6.8-5.6c-2.7-0.5-5.6,5.1-8.4,5.8
		c-1.5,0.3-4.3,1.9-4.3,1.9s-1.5-1.9-2.6-2.4c-1.2-0.3-2.6,0-3.8,0.3c-4.6,1-12.7,5.5-12.7,5.5s0.5-3.9-1-4.8c-2.4-1.2-4.3-8-7-7.2
		c-4.4,0.9-19.3,6.5-19.3,6.5s0.3-2.9-0.3-4.1c-1.2-1.2-2.9-1.5-4.6-1.5c-16.1-0.2-20.5,0.3-36.4,0c-3.2-0.2-88.2,0.2-112.5,0.7
		c-10.9-1.4-15.7-3.1-17.1-1.5c-0.9,1.2-0.3,4.1-0.3,4.1s-9.4-4.8-14.5-5.1c-2.1,0.3-5.1,6.8-6.8,7.9c-1.4,1.2-0.7,4.8-0.7,4.8
		s-1.5-1.7-7.2-2.1c-1.7,0-4.6-5.8-4.6-5.8s-4.3-1.7-6.3-1.9c-1.9,0-3.8-0.3-3.4,4.1c-2.1-0.3-2.1,3.2-3.4,1.9
		c-3.9-2.2-16.4,0.2-16.4,0.2s-3.4-5.3-6.2-7c-1.5-0.9-4.8-0.2-4.8-0.2s-3.2-3.2-5.5-2.7c-4.3,0.3-10.9,5.1-10.9,5.1
		s-1.9-7.9-3.1-8.5c-3.6-2.7-3.9-5.3-8-7.4c-1.4-0.7-2.7-2.1-4.4-1.9c-2.7,0.2-5.6,0-8.4,0.3c-1.7,0.2-3.1,3.4-3.1,3.4l-8-3.9
		c0,0,3.1,0.2,4.4,0.5c2.9,0.3,5.5-1.2,8.2-1.7c2.6-0.5,5-1.2,7.5-1.5c1.7-0.3,3.1,1,4.4,1.9c2.4,1.7,1.5,0.9,4.3,2.2
		c1.9,1,4.3,7.5,6.5,7.9c2.1,0,3.9-0.3,5.8-1c2.4-1.4-3.9-2.6-2.1-4.4c1.4-1.4,7.7-8.2,7.7-8.2s-4.1,6.8-4.6,7.9
		c2.6,1.5,8.2,0.7,10.9,0.5c7.2-2.2-2.9-10.3-1-11.6c3.9,2.7,8.9,2.2,6.5-4.4c3.4,0.3,0.5-12-0.3-13.9c-0.7-1.7-4.8-2.2-4.8-3.8
		C-340.8,351.7-340.6,349.8-341.4,347.2 M-344.7,394.9c1.9,2.1,4.6,3.1,7.2,3.8c0.7,0.2,1.2-0.3,1.7-0.5c1.7,2.4,7.7,3.8,10.3,5
		c2.4,0.9,4.6-0.3,6.5-1.7c1.4,0.7,1.2-0.3,2.6,0c1.4-0.2-0.2-3.4-1-5.8c-3.8,0.2-10.8,0.9-14.2,2.4c-1.5-1.4-3.1-2.7-4.8-3.6
		C-339.2,393.4-342.3,393.6-344.7,394.9 M-12.9,384.5c-1.5,0.9-2.6,2.6-4.3,3.2c-3.1-0.9-6.2-1.7-9.4-1.9c-0.7,2.2-0.7,9.9-1.4,12.1
		c0.9-0.3,1.7-0.9,2.6-1.2c1.9,1.2,3.6-2.9,5.8-3.8c2.6-1.2,5.1-2.6,6.7-5c0.7,0.2,1.4,0.7,2.1,0.3c2.4-0.9,5-1.9,6.7-3.9
		C-6.8,383-10.2,383-12.9,384.5"/>
	<path class="st0" d="M-374.1,245.3l-20.5,1c-1.5,0.2-2.9-1-2.9-2.6v-5v-6.2c0-1.2-0.9-2.2-1.9-2.6l-4.1,7.9l0.5-8h-6.2
		c-1.5,0-2.7,1.4-2.6,2.7l1.2,15.4c0.2,1.5-1.5,3.9-4.4,3.8l-16.9,0.2c-2.1,0.5-2.9,1.4-2.6,3.1l0.5,2.9l0.9,5.3l7.4,45.1
		c0.2,1.4,1.2,2.4,2.6,2.4l15-0.3c1.4,0,2.4,1,2.6,2.4l1.5,20.3c-9.6,1.2-16.6,3.8-16.4,6c0.2,2.2,7.5,3.4,17.1,2.9l0.7,9.4
		c-8.2,1.2-14.2,3.4-14,5.3c0.2,1.9,6.3,2.9,14.5,2.7l0.5,7.2c-6.5,1.2-11.1,3.4-10.9,5.6c0.2,2.1,5.1,3.6,11.6,3.6l0.5,7.2
		c-5.1,2.7-7.9,7.7-6.5,12.1c1.7,5.1,8.5,7.4,15.2,5.1c6.7-2.2,10.8-8.2,9.1-13.3c-1.2-3.6-5-5.6-9.2-6l-0.2-6
		c6.8-1.2,11.8-3.4,11.5-5.6c-0.2-2.2-5.1-3.6-11.8-3.6l-0.2-7.2c7.9-1.2,13.5-3.2,13.3-5.1c-0.2-1.9-5.8-2.9-13.5-2.7l-0.2-9.7
		c8.2-1.4,14-3.6,13.9-5.6c-0.2-1.9-6-3.1-14-3.1l-0.5-20.9c0-1.2,0.9-2.2,2.1-2.6l15.6-3.8c1.2-0.3,2.1-1.4,2.1-2.6l2.9-54.7
		C-371.2,246.3-372.6,245.2-374.1,245.3 M-409.7,297.8l-3.2,0.7c-1.2,0-2.4-1-2.4-2.4L-421,266c-0.2-1.4,0.2-1.9,2.2-2.9l7.7-2.7
		c2.1-0.5,2.9,0.5,3.1,2.1l1,32.5C-406.8,296.6-408.1,297.3-409.7,297.8 M-401.5,398.4l-3.2-3.1l1-4.6l2.6-4.3l-1,5.1l1.2,5.5
		l3.8,1.9L-401.5,398.4z M-384.5,296.3c0,1.2-0.9,2.2-2.1,2.6l-3.4,0.9c-1.5,0.3-3.1-0.7-3.2-2.4l-1.5-35.6c-0.2-1.5,1-2.7,2.6-2.7
		h5.3c1.4,0,2.6,1.2,2.6,2.6l-0.3,29.9l7,3.6l-7-0.3L-384.5,296.3z"/>
	<path class="st0" d="M62.8,334.9c0.2-2.6-7.4-5.5-17.4-6.7l5.5-83.4v-1.4c0-1.2-1-2.2-2.2-2.2h-2.2l-4.4,8.2l0.2-8.2h-5.5
		c-0.9,0-1.5,0.7-1.5,1.5L33.7,285c0,0.9-0.7,1.5-1.5,1.5l-17.4,0.3c-0.9,0-1.5-0.7-1.5-1.5l-0.3-27.5c0-1-1-1.7-1.9-1.4l-8.4,2.4
		c-0.7,0.2-1.2,0.9-1,1.5l1.5,29.8l0.3,5l0.3,7.9l0.2,2.7l0.5,10.8l5.5,1.4l-5.3,1v0.7c0,0.9,0.7,1.5,1.5,1.4l5.6-0.2
		c0.9,0,1.4-0.7,1.5-1.4l0.7-10.9l0.3-5c0-0.9,0.7-1.4,1.5-1.4l19.5-0.3c0.9,0,1.5,0.7,1.5,1.5l-0.7,24.3
		c-9.2-0.2-16.1,1.4-16.2,3.8c-0.2,2.6,6.7,5.1,16.1,6.5l-0.3,10.8c-8.2,0.3-14.2,1.9-14.2,3.8c0,1.9,6,3.6,14,4.1l-0.2,7.5
		c-6.5,0.5-11.1,2.2-11.1,4.4c0,2.1,4.6,3.9,10.9,4.6l-0.2,4.1c0,0,0,0,0,0.2c-4.3,0.5-7.7,2.7-8.7,6.2c-1.5,5.1,2.7,10.9,9.4,13
		c6.8,2.1,13.5-0.3,15-5.5c1.5-5-2.4-10.6-8.9-12.8c0.2-0.2,0.3-0.5,0.3-0.9l0.2-3.9c7.9-0.2,13.9-2.2,14-4.6c0-2.4-5.8-4.4-13.3-5
		l0.5-7.4c8.9-0.2,15.7-1.9,15.7-3.9s-6.5-3.8-15.2-4.3l0.7-10.1C54.8,338.9,62.5,337.5,62.8,334.9 M43.5,381.6l2.4,3.4l0.2,4.4
		l-3.9,2.6l-4.8,1.2l4.4-2.9l3.1-4.6L43.5,381.6z"/>
</g>
</svg>
