<svg xmlns="http://www.w3.org/2000/svg" viewBox="-429 221.3 100 93.5" style="enable-background:new -429 221.3 100 93.5"><path d="M-332.9 314.7H-425s1.3-10.3 3.8-12.3h84.6c2.3 2.1 3.7 12.3 3.7 12.3zm-4.6-15.6c5.4-8 8.5-17.6 8.5-27.9 0-26.9-21.3-48.9-48-50v12.6c15.4 1 27.6 13.8 27.6 29.5 0 16.3-13.2 29.6-29.6 29.6-16.3 0-29.6-13.2-29.6-29.6 0-15.7 12.2-28.5 27.6-29.5v-12.6c-26.7 1.1-48 23-48 50 0 10.3 3.1 20 8.5 27.9h83zM-379 238c14 0 25.4 11.4 25.4 25.4s-11.4 25.4-25.4 25.4-25.4-11.4-25.4-25.4c0-14.1 11.4-25.4 25.4-25.4zm0 5.2c-11.1 0-20.1 9-20.1 20.1 0 11.1 9 20.1 20.1 20.1 11.1 0 20.1-9 20.1-20.1 0-11.1-9-20.1-20.1-20.1zm-13.7 27.5c-.4-1.4-1.6-20.5 15.7-20.7 6-.1 11.2 3.2 14 8-1.9-6.8-8.2-11.8-15.7-11.8-9-.1-20.4 9.7-14 24.5z"/></svg>