<svg id="Слой_1" xmlns="http://www.w3.org/2000/svg" viewBox="0 0 160 195" ><path class="st0" d="M158 128.2v-7.5l2-.3v8l-2-.2zm-.1-112.5c.5-.2 1.6-.7 2.1-.9v100.4l-2 1.4c0-44 0-92.1-.1-100.9zm.2-13.7c-9.8 0-19.6.1-29.4 0l2-2H160v13.1h-1.9c.1-3.7-.1-7.4 0-11.1zM134 195h-9.6l2.6-2h8l-1 2zM115.9 0h8.6c0 .5.1 1.5.2 2-3.7 0-7.3 0-11 .1.8-.6 1.6-1.3 2.2-2.1zM11 2c0-.5.2-1.5.2-2h102c-.3.5-.8 1.5-1.1 2.1C109.1 2 14 2 11 2zM2 6.3c-.5.2-1.5.7-2 1V0h4.2c.5.5 1.6 1.5 2.2 2H1.9c0 1.4.1 2.8.1 4.3zm.1 18.9C1.6 24.9.5 24.3 0 24V9.9c.5 0 1.4.1 1.9.1.1 5 .1 10.1.2 15.2zM2 76.5l-2 1.7V27.6c.5.1 1.4.2 1.9.3 0 4.2.1 24.1.1 48.6zm0 82.9l-2 1.3V84.3l2 .3v74.8zm0 9.9l-2 .3v-7.2l2-.5v7.4zM2 193h12.4l.8 1.9H0v-21l2 .6V193zm117.3 1.9H17V193h104.4l-2.1 1.9zM139 193c2.7.1 5.2 0 8 0v2h-10c.8-.4 1.4-1.1 2-2zm19-63.7l2 .8v64.8h-6l-2-1.9h6v-63.7z"/></svg>