<svg id="Слой_1" xmlns="http://www.w3.org/2000/svg" viewBox="-623.6 300.2 203 53" style="enable-background:new -623.6 300.2 203 53"><style>.st0{fill-rule:evenodd;clip-rule:evenodd}</style><path class="st0" d="M-554.6 338.2l-12-11-8 8-7-3-42 2h41l8 4 8-7 12 7zM-489.6 338.2l12-11 8 8 7-3 42 2h-41l-8 4-8-7-12 7z"/><g><path d="M-524.4 310.2c-.1-2.2.5-4.3 3-7.1-1.4 3.1-2.2 4.9-1 6.8 1.6 0 3.4.4 5 1.6-.9-3.8-1.8-7.6.7-8.7l-3.8-2.6c-3.5 2.8-6.6 6.5-6.5 10.9.7-.4 2.6 0 2.6-.9zM-524.5 327.9l-.8 6h6l.8-6z"/><path d="M-502.7 314.8c-2.7-2.1-5.1-2.8-7.5-2.6 1.5 2.2.9 3.2.7 4.3-.5-1.4-1.3-3.2-2.7-3.9-1.8-1-4.6-1.1-6.2 0-3.3-2.2-5.8-1.5-8 .5-1.3-.8-2.8-1.1-4.3-.7-1.5.4-3.2 3.2-3.5 3.2-.4-.3 1.9-3.4 2.1-3.4 1.6.3-3-1-4.6.3-15.6 6.5-12.1 26.5-6.5 32.8 1.3 3.4 4.4 3.5 7.1 3.2-.1-1-.7-1.2-.2-2l1.3 2.7c1.5 2.6 5.6 3 8.7 1.3 3.6 3.9 6.8 2.9 10.2.5 2.8 1.5 5.5.8 7.9-2 2.1.4 4.4-.6 6.3-2.3 8.9-11.8 7.6-22.3-.8-31.9zm-7.2 13.1h-3.4l-.8 6h3.4l-.7 5.2h-3.4l-.6 4.4h-5.2l.6-4.4h-6l-.6 4.4h-5.2l.6-4.4h-3.4l.7-5.2h3.4l.8-6h-3.4l.7-5.2h3.4l.6-4.4h5.2l-.6 4.4h6l.6-4.4h5.2l-.6 4.4h3.4l-.7 5.2z"/></g></svg>