<?xml version="1.0" encoding="utf-8"?>
<!-- Generator: Adobe Illustrator 19.0.1, SVG Export Plug-In . SVG Version: 6.00 Build 0)  -->
<svg version="1.1" id="Слой_1" xmlns="http://www.w3.org/2000/svg" xmlns:xlink="http://www.w3.org/1999/xlink" x="0px" y="0px"
	 viewBox="-756 508.2 203 52.9" style="enable-background:new -756 508.2 203 52.9;" xml:space="preserve">
<style type="text/css">
	.st0{fill:#42616E;}
</style>
<g>
	<path class="st0" d="M-687,546.2l-12-11l-8,8l-7-3l-42,2h41l8,4l8-7L-687,546.2z"/>
	<path class="st0" d="M-622,546.2l12-11l8,8l7-3l42,2h-41l-8,4l-8-7L-622,546.2z"/>
</g>
<path class="st0" d="M-656.8,518.2c-0.1-2.2,0.5-4.3,3-7.1c-1.4,3.1-2.2,4.9-1,6.8c1.6,0,3.4,0.4,5,1.6c-0.9-3.8-1.8-7.6,0.7-8.7
	l-3.8-2.6c-3.5,2.8-6.6,6.5-6.5,10.9C-658.7,518.7-656.8,519.1-656.8,518.2z"/>
<path class="st0" d="M-635.1,522.8c-2.7-2.1-5.1-2.8-7.5-2.6c1.5,2.2,0.9,3.2,0.7,4.3c-0.5-1.4-1.3-3.2-2.7-3.9
	c-1.8-1-4.6-1.1-6.2,0c-3.3-2.2-5.8-1.5-8,0.5c-1.3-0.8-2.8-1.1-4.3-0.7c-1.5,0.4-3.2,3.2-3.5,3.2c-0.4-0.3,1.9-3.4,2.1-3.4
	c1.6,0.3-3-1-4.6,0.3c-15.6,6.5-12.1,26.5-6.5,32.8c1.3,3.4,4.4,3.5,7.1,3.2c-0.1-1-0.7-1.2-0.2-2l1.3,2.7c1.5,2.6,5.6,3,8.7,1.3
	c3.6,3.9,6.8,2.9,10.2,0.5c2.8,1.5,5.5,0.8,7.9-2c2.1,0.4,4.4-0.6,6.3-2.3C-625.4,542.9-626.7,532.4-635.1,522.8z M-643.8,536.6
	c0,2.2,0,5.4,0.1,6.7c0,2.8-4.5,5.3-10.2,5.3c-5.6,0-10.3-2.2-10.3-5.1c0-1.3-0.1-4.5-0.1-6.7c-1.5,0-2.7-1.3-2.7-2.7
	c0-1.4,1.2-2.6,2.6-2.6c1.5,0,2.7,1.2,2.7,2.7c0,0.8-0.3,1.5-0.9,2l2.9,2.6l4.1-6.3c-0.8-0.5-1.3-1.3-1.3-2.2c0-1.5,1.2-2.7,2.7-2.7
	s2.7,1.2,2.7,2.7c0,0.9-0.5,1.8-1.2,2.3l4.2,6.2l2.7-2.6c-0.6-0.5-0.9-1.3-0.9-2.1c0-1.5,1.2-2.7,2.7-2.7s2.7,1.2,2.7,2.7
	C-641.1,535.3-642.2,536.6-643.8,536.6z"/>
</svg>
