<svg xmlns="http://www.w3.org/2000/svg" id="Слой_1" style="enable-background:new 0 0 68 68" viewBox="0 0 68 68"><style>.st0{display:none;} .st1{display:inline;fill:#435B69;} .st2{display:none;fill:#435B69;} .st3{fill:#435B69;}</style><g class="st0"><path d="M0 0h4.2c.5.5 1.6 1.5 2.2 2H1.9c0 1.4.1 2.8.1 4.3-.5.2-1.5.7-2 1V0zM23.9 0h8.6c0 .5.1 1.5.2 2h-11c.8-.5 1.6-1.2 2.2-2zM38.7 0H68v13h-1.9c.1-3.7-.1-7.4 0-11.1-9.8.1-19.6.1-29.4.1l2-2zM0 27.5c.5.1 1.4.2 1.9.3.1 12.7 0 25.5.1 38.2 9.1 0 18.2-.1 27.4 0-.5.5-1.6 1.5-2.1 1.9H0V27.5zM34.7 66c2.8-.1 5.6-.1 8.4-.1-.3.5-.8 1.5-1.1 2.1h-9.6c.6-.5 1.8-1.5 2.3-2z" class="st1"/></g><g class="st0"><path d="M11.2 0h10c-.3.5-.8 1.5-1.1 2.1C17.1 2 14 2 11 2c0-.5.2-1.5.2-2zM0 9.9c.5 0 1.4.1 1.9.1.1 5 .1 10 .2 15.2-.5-.3-1.6-.9-2.1-1.2V9.9zM65.9 15.7c.5-.2 1.6-.7 2.1-.9V68h-6c-.6-.5-1.8-1.5-2.3-2h6.4c-.2-16.8 0-33.5-.2-50.3zM46.8 65.9c2.7.1 5.4 0 8.2 0 0 .5.1 1.5.1 2H44.7c.8-.4 1.5-1.1 2.1-2z" class="st1"/></g><path d="M61.7 6v55.7H6V6h55.7m1-1H5v57.7h57.7V5z" class="st2"/><path d="M55.8 17.1c-3.4 0-11.9 4.4-15.4 6.7l-.5 7.4c5.1-1.2 14.5-3.1 16.7-3.4 1.1-.2 2.3 0 3.3.5v-8c0-.4-.8-3.2-4.1-3.2zM30.1 24.5l.1 1.6.4 5.6h6.2l.5-7.2zM27 23.9c-3.5-2.2-12-6.7-15.4-6.7-3.2 0-4.1 2.7-4.1 3.1v8c1-.5 2.2-.7 3.3-.5 2.2.3 11.6 2.2 16.7 3.4l-.5-7.3zM10.3 30.9c-1-.2-1.8.3-2.1.6-.5.4-.7.8-.7 1v.2c0 .7.1 1.4.6 1.9.7.6 2.3.8 4.5.5 3-.4 6.7-1.2 9.8-1.9-4.8-1-10.5-2.1-12.1-2.3zM14.8 37.9l-3.7 4.4 7.5 10.6 7.9-17.3c-3 .5-7.6 1.5-11.7 2.3zM52.6 37.9c-4.1-.7-8.7-1.7-11.7-2.4l7.9 17.3 7.5-10.6-3.7-4.3zM59.2 31.4c-.4-.3-1.1-.8-2.1-.6-1.6.3-7.2 1.3-12.1 2.4 3.1.7 6.8 1.4 9.8 1.9 2.2.3 3.8.1 4.5-.5.5-.5.6-1.2.6-1.9v-.2c0-.1-.2-.6-.7-1.1z" class="st3"/></svg>