<svg id="Layer_1" xmlns="http://www.w3.org/2000/svg" viewBox="-30 34 68 68.1" style="enable-background:new -30 34 68 68.1"><style>.st0{fill:#4e708a}.st1{fill:#547994}</style><path class="st0" d="M-30 34h4.2c.5.5 1.6 1.5 2.2 2h-4.5c0 1.4.1 2.8.1 4.3-.5.2-1.5.7-2 1V34zM-6.1 34h8.6c0 .5.1 1.5.2 2-3.7 0-7.3 0-11 .1.8-.6 1.6-1.3 2.2-2.1zM8.7 34H38v13.1h-1.9c.1-3.7-.1-7.4 0-11.1-9.8 0-19.6.1-29.4 0l2-2zM-30 61.6c.5.1 1.4.2 1.9.3.1 12.7 0 25.4.1 38.2 9.1 0 18.2-.1 27.4 0-.5.5-1.6 1.5-2.1 1.9H-30V61.6zM4.7 100.1c2.8-.1 5.6-.1 8.4-.1-.3.5-.8 1.5-1.1 2.1H2.4c.6-.6 1.8-1.5 2.3-2z"/><g><path class="st1" d="M-18.8 34h10c-.3.5-.8 1.5-1.1 2.1-3-.1-6.1-.1-9.1-.1 0-.5.2-1.5.2-2zM-30 43.9c.5 0 1.4.1 1.9.1.1 5 .1 10.1.2 15.2-.5-.3-1.6-.9-2.1-1.2V43.9zM35.9 49.7c.5-.2 1.6-.7 2.1-.9V102h-6c-.6-.5-1.8-1.5-2.3-2h6.4c-.2-16.8 0-33.5-.2-50.3zM16.8 99.9c2.7.1 5.4 0 8.2 0 0 .5.1 1.5.1 2H14.7c.8-.4 1.5-1.1 2.1-2z"/></g></svg>