<svg id="Layer_1" xmlns="http://www.w3.org/2000/svg" viewBox="-30 34 68 68.1" style="enable-background:new -30 34 68 68.1"><style>.st0{fill:#547994}</style><g id="Слой_2"><path class="st0" d="M-25 39h58v58h-58V39m8.6 3.3c2.5 4.1 5 8.1 7.4 12.2-4.2-2.7-8.5-5.5-12.7-8.2v27.2c2.2-.4 4.4-1 6.6-1.3-2.2 1.4-4.4 2.9-6.6 4.3v14.2c4.3-2.1 8.6-4.3 12.9-6.4-2.8 3.2-5.7 6.3-8.5 9.5H-.5c.4-.7.8-1.3 1.2-2 .3.6.6 1.3.8 2h21c-.7-1.5-1.5-2.9-2-4.5 1.4 1.5 2.8 3 4.3 4.5h2c-2.9-3-5.9-6-8.7-9.1 3.9 2 7.8 4.1 11.8 6.1v-28c-2.8.6-5.5 1.3-8.3 1.9 2.8-1.1 5.5-2.2 8.3-3.3V48.2c-2.1 1-4.2 2.1-6.3 3.1 2.1-1.6 4.2-3.3 6.3-4.9V45c-4.3 2.8-8.5 5.7-12.8 8.5l7.8-11.1H-5.9c.7 2.6 1.4 5.1 2.1 7.7-1.3-2.5-2.6-5.1-3.9-7.7-3-.1-5.9-.1-8.7-.1z" id="_x23_617685ff"/></g></svg>