<svg id="Layer_1" xmlns="http://www.w3.org/2000/svg" viewBox="-15 17 68 68" style="enable-background:new -15 17 68 68"><style>.st0{fill:#4e708a}</style><path class="st0" d="M-8.8 41.6c4.2-.4 8.6-.1 12.5 1.6 3.3 1.4 5.9 3.7 7.9 6.6 1.5 2.2 2.6 4.8 3.3 7.3.1.5.3 1 .4 1.5.1.6 0 1.1-.3 1.5s-.8.7-1.3.8c-4.2.4-8.5.1-12.5-1.6-3.3-1.4-5.9-3.7-7.9-6.6-1.5-2.2-2.6-4.8-3.3-7.3-.1-.5-.3-1-.4-1.5-.1-.6 0-1.1.3-1.5.3-.5.7-.8 1.3-.8zm13 2.1c-5.9 4-1.9 15.1-1.9 15.1 7.3-7.3 1.9-15.1 1.9-15.1zM46.9 41.6c-4.2-.4-8.5-.1-12.5 1.6-3.2 1.4-5.9 3.7-7.8 6.6-1.5 2.2-2.6 4.8-3.3 7.3-.1.5-.3 1-.4 1.5-.1.6 0 1.1.3 1.5s.8.7 1.3.8c4.2.4 8.6.1 12.5-1.6 3.3-1.4 5.9-3.7 7.9-6.6 1.5-2.2 2.6-4.8 3.3-7.3.1-.5.3-1 .4-1.5.1-.6 0-1.1-.3-1.5-.4-.5-.8-.8-1.4-.8zm-13 2.1c5.9 4 1.9 15.1 1.9 15.1-7.3-7.3-1.9-15.1-1.9-15.1z"/></svg>