<svg id="Layer_1" xmlns="http://www.w3.org/2000/svg" viewBox="-15 17 68 68" style="enable-background:new -15 17 68 68"><style>.st0{fill:#4e708a}.st1{fill:#547994}</style><path class="st0" d="M-15 17h4.2c.5.5 1.6 1.5 2.2 2h-4.5c0 1.4.1 2.8.1 4.3-.5.2-1.5.7-2 1V17zM8.9 17h8.6c0 .5.1 1.5.2 2-3.7 0-7.3 0-11 .1.8-.6 1.6-1.3 2.2-2.1zM23.7 17H53v13.1h-1.9c.1-3.7-.1-7.4 0-11.1-9.8 0-19.6.1-29.4 0l2-2zM-15 44.6c.5.1 1.4.2 1.9.3.1 12.7 0 25.4.1 38.2 9.1 0 18.2-.1 27.4 0-.5.5-1.6 1.5-2.1 1.9H-15V44.6zM19.7 83.1c2.8-.1 5.6-.1 8.4-.1-.3.5-.8 1.5-1.1 2.1h-9.6c.6-.6 1.8-1.5 2.3-2z"/><g><path class="st1" d="M-3.8 17h10c-.3.5-.8 1.5-1.1 2.1C2.1 19-1 19-4 19c0-.5.2-1.5.2-2zM-15 26.9c.5 0 1.4.1 1.9.1.1 5 .1 10.1.2 15.2-.5-.3-1.6-.9-2.1-1.2V26.9zM50.9 32.7c.5-.2 1.6-.7 2.1-.9V85h-6c-.6-.5-1.8-1.5-2.3-2h6.4c-.2-16.8 0-33.5-.2-50.3zM31.8 82.9c2.7.1 5.4 0 8.2 0 0 .5.1 1.5.1 2H29.7c.8-.4 1.5-1.1 2.1-2z"/></g><g><path class="st0" d="M-9.1 38.6h.1V23h55.7v15.5h.6c.1 0 .3.1.4.1V22H-10v16.8c.3-.1.6-.2.9-.2zM47.7 41.8c-.2-.1-.5-.2-.7-.2h-.3v8c.4-.8.7-1.6 1-2.4v-5.4zM47.4 54.4c-.2.3-.5.6-.7 1v23.3H-9v-24c-.1-.1-.2-.2-.2-.3-.3-.4-.5-.9-.8-1.3v26.5h57.7V53.9c-.1.2-.2.3-.3.5zM-9 41.6c-.4.1-.7.3-1 .5v3.5c.3 1 .6 1.9 1 2.9v-6.9z"/></g></svg>