<svg xmlns="http://www.w3.org/2000/svg" id="Layer_1" style="enable-background:new -905 511 68 68.1" viewBox="-905 511 68 68.1"><style>.st0{fill:#435B69;}</style><path d="M-905 511h4.2c.5.5 1.6 1.5 2.2 2h-4.5c0 1.4.1 2.8.1 4.3-.5.2-1.5.7-2 1V511zM-881.1 511h8.6c0 .5.1 1.5.2 2-3.7 0-7.3 0-11 .1.8-.6 1.6-1.3 2.2-2.1zM-866.3 511h29.3v13.1h-1.9c.1-3.7-.1-7.4 0-11.1-9.8 0-19.6.1-29.4 0l2-2zM-905 538.6c.5.1 1.4.2 1.9.3.1 12.7 0 25.4.1 38.2 9.1 0 18.2-.1 27.4 0-.5.5-1.6 1.5-2.1 1.9H-905v-40.4zM-870.3 577.1c2.8-.1 5.6-.1 8.4-.1-.3.5-.8 1.5-1.1 2.1h-9.6c.6-.6 1.8-1.5 2.3-2z" class="st0"/><g><path d="M-893.8 511h10c-.3.5-.8 1.5-1.1 2.1-3-.1-6.1-.1-9.1-.1 0-.5.2-1.5.2-2zM-905 520.9c.5 0 1.4.1 1.9.1.1 5 .1 10.1.2 15.2-.5-.3-1.6-.9-2.1-1.2v-14.1zM-839.1 526.7c.5-.2 1.6-.7 2.1-.9V579h-6c-.6-.5-1.8-1.5-2.3-2h6.4c-.2-16.8 0-33.5-.2-50.3zM-858.2 576.9c2.7.1 5.4 0 8.2 0 0 .5.1 1.5.1 2h-10.4c.8-.4 1.5-1.1 2.1-2z" class="st0"/></g><g><path d="M-899.1 543.7v-26.5h55.7v26.5c.4.2.7.5 1.1.9v-28.4h-57.8v28.4c.3-.3.7-.7 1-.9zM-843.3 552.6v20.2H-899v-20.2c-.4-.3-.7-.6-1.1-1V574h57.8v-22.4l-1 1z" class="st0"/></g></svg>