<svg xmlns="http://www.w3.org/2000/svg" id="Layer_1" style="enable-background:new -905 511 68 68" viewBox="-905 511 68 68"><style>.st0{fill:#435B69;}</style><path id="_x23_000000ff" d="M-896.4 522.9c.1-.8 1.2-1.3 1.8-.6.8 1.2 1.1 2.6 1.8 3.8 1.8 3.4 4.1 6.7 7.3 9 1.8 1.2 4 2.1 6.2 2 1.8-.1 3.6.1 5.4.4 2.8.5 5.5-.6 8.2-.4 3.2.3 6.2-1.3 8.5-3.5 2.5-2.4 4.5-5.4 5.9-8.5.5-.9.8-1.9 1.3-2.8.6-.6 1.6-.2 1.7.6.9 4.1.4 8.6-1.6 12.3-1.8 3.6-4.8 6.4-8.1 8.6.2.2.5.7.6.9 1.7-.9 3.3-2 5.2-2.3 2.8-.5 5.9.7 7.5 3.1.4.6-.2 1.3-.5 1.8-2 2.4-4.9 4.3-8.1 4.2 1 2.9 1.6 6.1.9 9.2-.4 1.7-2.8 2.3-4.1 1.1-.7-.6-.7-1.6-.6-2.4.5-3.8-.8-7.8-3.2-10.8-3-3.8-7.9-5.9-12.7-5.5-5.8.3-11.3 4.3-13.2 9.8-.9 2.3-.9 4.8-.8 7.2.2 2.1-2.6 3-4 1.8-.8-.6-.9-1.7-1-2.6-.2-2.6.2-5.3 1-7.8-3.3.3-6.3-1.6-8.4-3.9-.4-.6-1.1-1.3-.8-2.1 1.5-2.3 4.4-3.6 7.1-3.2 2.1.2 3.9 1.5 5.7 2.5.1-.3.4-.8.5-1-4.2-2.8-7.9-6.7-9.3-11.6-.8-3-.9-6.3-.2-9.3z" class="st0"/></svg>