<svg id="Layer_1" xmlns="http://www.w3.org/2000/svg" viewBox="-30 33.8 68 68.1" style="enable-background:new -30 33.8 68 68.1"><style>.st0{fill:#4e708a}.st1{fill:#547994}</style><path class="st0" d="M-30 33.8h4.2c.5.5 1.6 1.5 2.2 2h-4.5c0 1.4.1 2.8.1 4.3-.5.2-1.5.7-2 1v-7.3zM-6.1 33.8h8.6c0 .5.1 1.5.2 2-3.7 0-7.3 0-11 .1.8-.6 1.6-1.3 2.2-2.1zM8.7 33.8H38v13.1h-1.9c.1-3.7-.1-7.4 0-11.1-9.8 0-19.6.1-29.4 0l2-2zM-30 61.3c.5.1 1.4.2 1.9.3.1 12.7 0 25.4.1 38.2 9.1 0 18.2-.1 27.4 0-.5.5-1.6 1.5-2.1 1.9H-30V61.3zM4.7 99.9c2.8-.1 5.6-.1 8.4-.1-.3.5-.8 1.5-1.1 2.1H2.4c.6-.7 1.8-1.5 2.3-2z"/><g><path class="st1" d="M-18.8 33.8h10c-.3.5-.8 1.5-1.1 2.1-3-.1-6.1-.1-9.1-.1 0-.5.2-1.5.2-2zM-30 43.7c.5 0 1.4.1 1.9.1.1 5 .1 10 .2 15.2-.5-.3-1.6-.9-2.1-1.2V43.7zM35.9 49.5c.5-.2 1.6-.7 2.1-.9v53.2h-6c-.6-.5-1.8-1.5-2.3-2h6.4c-.2-16.9 0-33.5-.2-50.3zM16.8 99.7c2.7.1 5.4 0 8.2 0 0 .5.1 1.5.1 2H14.7c.8-.5 1.5-1.1 2.1-2z"/></g><g id="Слой_2"><path class="st0" d="M-24 62.3V39.8h55.7v23.4c.3.1.6.2 1 .4V38.8H-25v23.7c.3-.2.7-.2 1-.2zM32.4 72.1c-.2.1-.5.1-.7.1v23.3H-24V70.8c-.3 0-.7-.1-1-.2v25.9h57.7V72c-.1 0-.2.1-.3.1z"/></g></svg>