<?xml version="1.0" encoding="iso-8859-1"?>
<!-- Generator: Adobe Illustrator 19.0.0, SVG Export Plug-In . SVG Version: 6.00 Build 0)  -->
<svg version="1.1" id="Layer_1" xmlns="http://www.w3.org/2000/svg" xmlns:xlink="http://www.w3.org/1999/xlink" x="0px" y="0px"
	 viewBox="0 0 511.999 511.999" style="enable-background:new 0 0 511.999 511.999;" xml:space="preserve">
<g>
	<g>
		<path d="M350.546,122.033c0.874-3.277,1.345-6.715,1.345-10.262c0-22.005-17.917-39.907-39.938-39.907
			c-22.021,0-39.938,17.902-39.938,39.907c0,3.547,0.472,6.985,1.345,10.262c-91.901,18.013-161.454,99.068-161.454,196.056
			c0,0.598,0.027,1.205,0.032,1.805L0,365.214l8.102,16.168c13.887,27.711,39.146,46.555,73.045,54.492
			c12.26,2.871,25.512,4.261,39.464,4.261c60.811-0.001,134.807-26.435,196.869-71.876c105.248-0.672,178.634-20.322,181.758-21.172
			l11.445-3.115l0.825-11.833c0.326-4.68,0.491-9.407,0.491-14.05C512,221.101,442.447,140.046,350.546,122.033z M190.028,395.609
			c-37.871,11.423-73.837,14.175-101.268,7.753c-17.005-3.982-30.486-11.273-40.279-21.753l81.766-33.104
			c15.653,3.803,62.601,14.07,127.937,18.108C236.177,378.801,213.172,388.628,190.028,395.609z M295.257,334.709
			c-71.399-1.463-126.772-11.899-149.96-17.023c0.205-85.951,66.007-156.798,149.96-165.176V334.709z M311.952,118.286
			c-3.61,0-6.547-2.923-6.547-6.516s2.937-6.516,6.547-6.516s6.547,2.923,6.547,6.516S315.562,118.286,311.952,118.286z
			 M328.648,334.711V152.51c83.959,8.377,149.764,79.226,149.96,165.186C455.464,322.824,400.22,333.253,328.648,334.711z"/>
	</g>
</g>
<g>
</g>
<g>
</g>
<g>
</g>
<g>
</g>
<g>
</g>
<g>
</g>
<g>
</g>
<g>
</g>
<g>
</g>
<g>
</g>
<g>
</g>
<g>
</g>
<g>
</g>
<g>
</g>
<g>
</g>
</svg>
