<svg id="el_xU99eFK9g" xmlns="http://www.w3.org/2000/svg" viewBox="0 0 100 100" style="enable-background:new 0 0 100 100"><style>@-webkit-keyframes el_9yxC6GyxAo_Sv8f28jrW_Animation{0%,to{-webkit-transform:scale(.8,.8);transform:scale(.8,.8)}6.67%{-webkit-transform:scale(1,1);transform:scale(1,1)}13.33%{-webkit-transform:scale(.9,.9);transform:scale(.9,.9)}}@keyframes el_9yxC6GyxAo_Sv8f28jrW_Animation{0%,to{-webkit-transform:scale(.8,.8);transform:scale(.8,.8)}6.67%{-webkit-transform:scale(1,1);transform:scale(1,1)}13.33%{-webkit-transform:scale(.9,.9);transform:scale(.9,.9)}}#el_xU99eFK9g *{-webkit-animation-duration:2s;animation-duration:2s;-webkit-animation-iteration-count:infinite;animation-iteration-count:infinite;-webkit-animation-timing-function:cubic-bezier(0,0,1,1);animation-timing-function:cubic-bezier(0,0,1,1)}#el_9yxC6GyxAo_Sv8f28jrW{-webkit-animation-name:el_9yxC6GyxAo_Sv8f28jrW_Animation;animation-name:el_9yxC6GyxAo_Sv8f28jrW_Animation;-webkit-transform-origin:50% 50%;transform-origin:50% 50%;transform-box:fill-box;-webkit-transform:scale(.8,.8);transform:scale(.8,.8)}</style><style/><g id="el_9yxC6GyxAo_Sv8f28jrW" data-animator-group="true" data-animator-type="2"><g id="el_9yxC6GyxAo"><g id="el_UrKVSrTRdQ"><path id="el_6qMrtji6c7" d="M46.5 22.5c-.1-3.1.7-6 4.2-9.9-2 4.4-3.1 6.8-1.4 9.5 2.3 0 4.8.6 7 2.3-1.3-5.3-2.5-10.6 1-12.2L52 8.5c-4.9 4-9.2 9.1-9.1 15.2.9-.5 3.6-.1 3.6-1.2z"/><path id="el_OSGRZgtZqr" d="M76.8 28.8c-3.8-3-7.1-4-10.5-3.7 2.1 3.1 1.3 4.5 1 6-.7-2-1.8-4.5-3.8-5.4-2.5-1.4-6.4-1.6-8.6 0-4.7-3.1-8.1-2.1-11.2.7-1.8-1.1-4-1.6-6-1-2.1.6-4.5 4.5-4.9 4.5-.6-.4 2.7-4.8 3-4.8 2.3.4-4.2-1.4-6.4.4-21.8 9.1-16.9 37-9.1 45.8 1.8 4.8 6.1 4.9 9.9 4.5-.1-1.4-1-1.7-.3-2.8l1.8 3.8c2.1 3.7 7.8 4.2 12.2 1.8 5 5.4 9.5 4.1 14.3.7 4 2.1 7.7 1.1 11-2.8 3 .6 6.1-.8 8.8-3.2 12.3-16.4 10.4-31-1.2-44.5zm-5.3 9.1c.3 1 .5 2 .5 3.1 0 5.3-4.1 9.5-9.2 9.5-4.7 0-8.5-3.7-9.1-8.4l17.8-4.2zm-42.1 0l17.7 4.2c-.5 4.7-4.4 8.4-9.1 8.4-5.1 0-9.2-4.3-9.2-9.5 0-1.1.3-2.2.6-3.1zm37.7 24.5l-4.6.5-3.6 4.5-5.1-.8-3.8 1.6-3.8-1.6-5.1.8-3.6-4.5-4.6-.5-6.4-12 6.1 8h4.8L41 62l3.1-1.1 5.9 2.3 5.9-2.4 3.1 1.1 3.6-3.6h4.8l6.1-8-6.4 12.1z"/></g></g></g><script>(function(){var a=document.querySelector(&apos;#el_xU99eFK9g&apos;),b=a.querySelectorAll(&apos;style&apos;),c=function(d){b.forEach(function(f){var g=f.textContent;g&amp;&amp;(f.textContent=g.replace(/transform-box:[^;\r\n]*/gi,&apos;transform-box: &apos;+d))})};c(&apos;initial&apos;),window.requestAnimationFrame(function(){return c(&apos;fill-box&apos;)})})();</script></svg>